# xmcd
#
# Track frame offsets:
#	150
#	26900
#	42027
#	68730
#	95608
#	117798
#	129274
#	140134
#	159902
#	174862
#	203434
#	218293
#	243036
#	279165
#
# Disc length: 3886 seconds
#
# Revision: 1
# Processed by: cddbd v1.5.1PL2 Copyright (c) Steve Scherf et al.
# Submitted via: audiograbber 1.83.01
#
DISCID=ac0f2c0e
DTITLE=Gilland, Joseph - Peaceful Blue Fever
DYEAR=1996
DGENRE=
TTITLE0=Peaceful Blue Fever
TTITLE1=Wanderin' Aloud
TTITLE2=Down in L.A.
TTITLE3=Cold and Grey
TTITLE4=It's No Joke
TTITLE5=Brasserie Blues
TTITLE6=Sometimes
TTITLE7=J.C.'s Blues
TTITLE8=Between Me, Between You
TTITLE9=Blow Our Minds
TTITLE10=Shoulda Leraned My Lesson
TTITLE11=Emerging
TTITLE12=Iceman
TTITLE13=Song In Your Heart
EXTD=
EXTT0=
EXTT1=
EXTT2=
EXTT3=
EXTT4=
EXTT5=
EXTT6=
EXTT7=
EXTT8=
EXTT9=
EXTT10=
EXTT11=
EXTT12=
EXTT13=
PLAYORDER=
